<?xml version="1.0" standalone="no"?>
<!DOCTYPE svg PUBLIC "-//W3C//DTD SVG 20010904//EN"
 "http://www.w3.org/TR/2001/REC-SVG-20010904/DTD/svg10.dtd">
<svg version="1.0" xmlns="http://www.w3.org/2000/svg"
 width="1436.000000pt" height="1436.000000pt" viewBox="0 0 1436.000000 1436.000000"
 preserveAspectRatio="xMidYMid meet">
<metadata>
Created by potrace 1.14, written by Peter Selinger 2001-2017
</metadata>
<g transform="translate(0.000000,1436.000000) scale(0.100000,-0.100000)"
fill="#000000" stroke="none">
<path d="M7008 13776 c-1 -2 -91 -6 -198 -10 -107 -3 -211 -8 -230 -10 -19 -2
-71 -7 -116 -10 -44 -4 -89 -8 -100 -10 -10 -2 -46 -7 -79 -10 -33 -4 -71 -9
-85 -11 -14 -2 -45 -7 -70 -10 -71 -10 -312 -55 -345 -64 -25 -8 -158 -38
-201 -47 -113 -21 -620 -189 -739 -243 -11 -6 -63 -28 -116 -50 -161 -67 -359
-166 -574 -286 -147 -82 -463 -288 -567 -369 -14 -12 -41 -32 -59 -46 -41 -31
-240 -190 -255 -205 -6 -5 -37 -32 -69 -60 -125 -107 -344 -324 -475 -470
-532 -594 -931 -1278 -1185 -2035 -40 -120 -137 -464 -149 -530 -2 -14 -12
-59 -21 -100 -19 -87 -49 -260 -65 -375 -6 -44 -13 -91 -15 -105 -2 -14 -7
-59 -11 -100 -3 -41 -8 -88 -10 -105 -23 -211 -23 -853 0 -995 2 -14 7 -61 11
-105 6 -68 21 -178 50 -370 4 -22 18 -96 31 -165 152 -762 470 -1507 916
-2145 84 -120 251 -339 313 -410 14 -16 36 -41 47 -55 217 -258 585 -606 863
-817 17 -13 48 -37 70 -54 22 -17 67 -50 100 -72 33 -23 65 -45 70 -49 39 -31
317 -208 327 -208 5 0 226 370 275 460 8 14 23 41 35 60 180 305 329 563 326
565 -2 1 -23 15 -48 30 -379 232 -780 574 -1066 910 -283 332 -543 746 -703
1120 -23 55 -49 114 -56 130 -112 260 -252 792 -280 1070 -4 32 -17 144 -20
165 -24 163 -24 688 0 875 2 17 9 73 16 125 6 52 12 102 14 110 1 8 6 35 9 60
6 37 48 253 61 310 62 275 205 668 348 955 158 318 403 687 610 923 114 129
312 333 401 411 178 156 315 265 471 373 98 67 288 186 312 195 10 3 29 14 43
23 30 21 256 136 355 180 333 151 811 293 1130 335 11 2 36 5 55 8 35 6 93 14
160 22 169 21 658 28 835 12 266 -24 398 -44 625 -95 63 -14 120 -27 125 -28
51 -9 348 -97 390 -114 11 -5 81 -32 155 -61 326 -124 695 -327 1000 -549 116
-84 109 -78 237 -185 544 -451 989 -1052 1268 -1715 146 -348 277 -837 310
-1165 4 -38 9 -79 11 -90 4 -21 10 -94 19 -235 7 -102 7 -386 0 -490 -6 -99
-16 -216 -20 -243 -2 -12 -6 -49 -10 -82 -3 -33 -7 -67 -10 -75 -2 -8 -6 -36
-10 -62 -3 -26 -18 -111 -34 -190 -138 -678 -433 -1318 -860 -1863 -52 -66
-126 -156 -164 -200 -75 -85 -332 -344 -407 -409 -54 -47 -311 -251 -360 -286
-188 -133 -400 -260 -585 -351 -60 -30 -111 -57 -113 -61 -2 -5 -10 -8 -18 -8
-8 0 -22 -5 -32 -10 -9 -6 -47 -23 -84 -40 -63 -27 -67 -31 -59 -52 14 -35
240 -590 250 -613 15 -35 76 -185 147 -361 l69 -171 70 -40 c38 -23 142 -82
230 -133 88 -51 180 -104 205 -118 47 -26 357 -206 470 -272 36 -21 227 -131
425 -245 385 -222 378 -218 506 -290 46 -27 100 -58 119 -71 19 -12 62 -37 95
-55 33 -18 131 -74 219 -126 87 -51 160 -93 162 -93 2 0 86 -48 186 -107 101
-58 255 -147 343 -198 303 -174 360 -207 394 -228 31 -19 21 0 -84 154 -158
231 -279 407 -305 444 -24 33 -341 495 -478 695 -47 69 -106 154 -131 190 -24
36 -83 121 -130 190 -47 69 -102 150 -123 180 -31 44 -379 547 -438 634 -8 11
-69 101 -137 200 l-122 178 32 26 c29 24 157 135 198 172 130 119 351 348 480
500 35 41 66 77 69 80 17 16 161 204 240 313 397 553 685 1161 874 1842 21 76
71 283 81 335 4 24 18 94 20 100 1 3 5 30 10 60 5 30 9 57 10 60 1 3 5 30 9
60 5 30 10 62 11 70 1 8 6 40 10 70 3 30 8 66 10 80 2 14 7 59 10 100 4 41 8
89 10 105 6 55 17 331 17 456 1 126 -10 423 -17 469 -3 23 -14 124 -20 195 -5
60 -16 150 -20 165 -3 8 -7 35 -10 60 -3 25 -7 56 -10 70 -3 14 -14 75 -26
135 -68 363 -182 743 -330 1105 -55 135 -232 500 -304 628 -339 602 -825 1182
-1355 1616 -58 48 -111 91 -118 97 -89 73 -349 254 -507 353 -270 168 -621
348 -864 442 -36 14 -79 32 -96 39 -118 51 -518 178 -665 211 -19 4 -37 8 -40
9 -36 10 -179 44 -205 49 -11 2 -40 7 -65 11 -25 4 -54 9 -65 11 -92 18 -247
42 -313 49 -26 3 -60 7 -77 10 -16 2 -68 7 -115 11 -47 3 -101 8 -120 10 -19
1 -114 6 -210 9 -96 4 -180 8 -187 10 -6 2 -13 2 -15 1z"/>
<path d="M6797 11504 c-1 -1 -67 -5 -147 -9 -80 -3 -158 -8 -175 -10 -16 -1
-66 -6 -110 -10 -44 -3 -87 -8 -95 -10 -8 -3 -40 -7 -70 -10 -47 -5 -115 -16
-245 -40 -16 -3 -46 -8 -65 -11 -19 -3 -91 -19 -160 -35 -69 -17 -136 -33
-148 -35 -91 -18 -416 -130 -587 -202 -172 -72 -195 -85 -190 -101 4 -14 162
-654 170 -691 2 -8 27 -107 55 -220 28 -113 53 -215 56 -228 2 -13 27 -114 55
-225 28 -111 52 -209 54 -217 7 -33 37 -145 40 -148 1 -2 26 11 54 28 29 16
54 30 56 30 2 0 45 20 97 43 133 62 294 116 468 156 73 17 125 27 250 46 203
30 430 27 628 -10 133 -25 303 -97 392 -166 47 -36 69 -59 135 -142 13 -16 43
-80 63 -137 26 -73 23 -285 -6 -378 -43 -136 -139 -313 -236 -433 -12 -14 -32
-40 -46 -59 -14 -18 -30 -38 -35 -44 -6 -6 -23 -27 -39 -46 -53 -64 -201 -230
-286 -320 -118 -124 -231 -249 -282 -312 -46 -57 -96 -119 -116 -143 -37 -46
-185 -272 -236 -363 -132 -233 -246 -536 -292 -777 -4 -22 -8 -44 -9 -50 -16
-68 -35 -257 -40 -393 -2 -53 -7 -166 -10 -249 -3 -84 -3 -153 2 -154 10 -1
87 -5 258 -13 72 -4 177 -9 235 -12 167 -8 265 -13 410 -19 74 -3 169 -8 210
-10 41 -2 136 -7 210 -10 74 -3 162 -8 196 -10 123 -7 402 -18 498 -19 92 -1
99 0 102 19 1 11 5 72 8 135 5 101 15 198 32 295 20 117 80 326 127 439 81
199 228 434 386 621 23 28 174 183 335 345 415 419 538 562 708 825 178 273
320 629 362 905 3 19 10 69 17 110 21 128 17 505 -6 635 -15 84 -28 145 -42
195 -21 76 -70 226 -82 247 -5 10 -24 50 -41 88 -95 212 -281 456 -474 623
-85 74 -269 212 -281 212 -3 0 -31 16 -62 36 -149 95 -423 209 -708 294 -80
24 -319 73 -412 85 -13 2 -40 6 -60 9 -54 9 -180 24 -267 31 -144 13 -600 26
-609 19z"/>
<path d="M6485 4903 c-476 -59 -845 -312 -1045 -718 -50 -101 -98 -235 -116
-320 -2 -11 -6 -31 -9 -45 -27 -127 -38 -369 -23 -485 16 -123 20 -141 35
-200 99 -392 341 -696 690 -869 126 -62 295 -116 413 -130 25 -3 68 -8 95 -12
90 -11 282 -5 384 11 108 17 140 25 250 62 386 129 688 441 815 840 28 91 30
99 52 223 31 173 22 430 -20 615 -147 637 -669 1035 -1356 1032 -74 0 -148 -2
-165 -4z"/>
</g>
</svg>
