<?xml version="1.0" standalone="no"?>
<!DOCTYPE svg PUBLIC "-//W3C//DTD SVG 20010904//EN"
 "http://www.w3.org/TR/2001/REC-SVG-20010904/DTD/svg10.dtd">
<svg version="1.0" xmlns="http://www.w3.org/2000/svg"
 width="256.000000pt" height="256.000000pt" viewBox="0 0 256.000000 256.000000"
 preserveAspectRatio="xMidYMid meet">
<metadata>
Created by potrace 1.14, written by Peter Selinger 2001-2017
</metadata>
<g transform="translate(0.000000,256.000000) scale(0.100000,-0.100000)"
fill="#000000" stroke="none">
<path d="M1099 2556 c-2 -2 -42 -7 -89 -11 -46 -3 -87 -8 -90 -10 -3 -1 -29
-6 -59 -9 -73 -9 -230 -49 -316 -81 -189 -71 -295 -163 -374 -327 -117 -242
-171 -549 -166 -943 3 -204 5 -219 32 -385 37 -227 124 -438 217 -525 139
-131 416 -222 766 -252 170 -15 521 -8 650 13 345 56 580 155 675 284 83 113
163 333 181 500 3 25 7 51 10 59 27 83 23 561 -6 745 -5 34 -12 79 -16 101 -3
22 -17 83 -31 134 -75 285 -166 434 -319 523 -124 71 -302 130 -479 157 -38 6
-86 13 -105 16 -39 7 -475 16 -481 11z"/>
</g>
</svg>
